<svg width="48" height="48" viewBox="0 0 48 48" fill="none" xmlns="http://www.w3.org/2000/svg">
<path d="M23.9978 13.9533C22.8928 13.9533 21.9978 14.8483 21.9978 15.9533H16.9978C16.4458 15.9533 15.9978 16.4013 15.9978 16.9533C15.9978 17.5053 16.4458 17.9533 16.9978 17.9533H30.9978C31.5498 17.9533 31.9978 17.5053 31.9978 16.9533C31.9978 16.4013 31.5498 15.9533 30.9978 15.9533H25.9978C25.9978 14.8483 25.1028 13.9533 23.9978 13.9533ZM16.9978 19.9532V29.9532C16.9978 32.1432 18.8028 33.9222 20.9978 33.9222L27.0288 33.9532C29.2238 33.9532 30.9978 32.1482 30.9978 29.9532V19.9532H16.9978ZM21.9978 22.9532C22.5498 22.9532 22.9978 23.4012 22.9978 23.9532V29.9532C22.9978 30.5052 22.5498 30.9532 21.9978 30.9532C21.4458 30.9532 20.9978 30.5052 20.9978 29.9532V23.9532C20.9978 23.4012 21.4458 22.9532 21.9978 22.9532ZM25.9978 22.9532C26.5498 22.9532 26.9978 23.4012 26.9978 23.9532V29.9532C26.9978 30.5052 26.5498 30.9532 25.9978 30.9532C25.4458 30.9532 24.9978 30.5052 24.9978 29.9532V23.9532C24.9978 23.4012 25.4458 22.9532 25.9978 22.9532Z" fill="#6D7580"/>
</svg>
